<?xml version="1.0" standalone="no"?>
<!DOCTYPE svg PUBLIC "-//W3C//DTD SVG 20010904//EN"
 "http://www.w3.org/TR/2001/REC-SVG-20010904/DTD/svg10.dtd">
<svg version="1.0" xmlns="http://www.w3.org/2000/svg"
 width="500.000000pt" height="500.000000pt" viewBox="0 0 500.000000 500.000000"
 preserveAspectRatio="xMidYMid meet">

<g transform="translate(0.000000,500.000000) scale(0.100000,-0.100000)"
fill="#000000" stroke="none">
<path d="M1918 3593 c6 -2 18 -2 25 0 6 3 1 5 -13 5 -14 0 -19 -2 -12 -5z"/>
<path d="M3291 3554 c-62 -31 -81 -65 -81 -144 0 -52 19 -112 40 -125 22 -14
22 4 -1 41 -43 70 -20 165 49 207 57 33 156 15 182 -33 6 -11 15 -18 21 -15 5
4 9 -22 9 -64 0 -59 -4 -74 -25 -99 -37 -44 -71 -54 -138 -44 -87 14 -91 -13
-7 -39 52 -16 107 2 154 50 34 34 40 48 44 94 7 82 -23 138 -90 171 -65 33
-91 33 -157 0z"/>
<path d="M2455 3380 c-174 -28 -283 -129 -329 -307 -18 -68 -20 -93 -8 -93 4
0 14 27 21 61 7 34 14 59 17 56 3 -3 0 -23 -5 -45 -12 -44 -12 -134 -1 -127 4
3 13 -9 20 -25 7 -17 15 -30 19 -30 15 0 64 39 84 67 12 17 46 60 76 96 l54
66 41 -31 c79 -61 186 -160 186 -172 0 -12 149 -46 202 -46 29 0 32 -8 44
-105 3 -33 10 -68 15 -77 5 -9 5 -18 1 -20 -5 -2 -26 -30 -47 -62 -25 -37 -68
-82 -117 -120 -61 -48 -78 -67 -78 -87 0 -30 19 -89 28 -89 8 0 193 -37 228
-45 19 -4 23 2 34 58 19 96 30 236 23 295 -5 46 -8 52 -29 52 -20 0 -25 8 -40
78 -15 66 -16 88 -6 157 9 62 17 84 34 96 21 16 21 17 4 83 -24 96 -52 151
-106 206 -58 60 -128 96 -211 110 -71 11 -82 11 -154 0z"/>
<path d="M1825 3301 c-6 -28 -42 -68 -80 -89 -20 -11 -20 -11 1 -12 27 0 84
-63 84 -93 1 -18 4 -15 15 12 11 25 12 37 4 47 -6 8 -9 21 -5 29 6 17 33 20
38 4 4 -12 58 -2 58 11 0 4 -13 10 -30 13 -29 6 -60 48 -60 81 0 28 -18 26
-25 -3z"/>
<path d="M4135 3080 c-61 -57 -104 -75 -119 -51 -3 5 -14 11 -25 14 -30 8 -20
-26 14 -45 17 -9 36 -17 43 -18 17 0 166 128 170 147 7 27 -20 12 -83 -47z"/>
<path d="M2155 2890 c2 -14 5 -52 6 -85 l1 -60 9 53 c7 40 5 60 -6 85 -12 25
-14 27 -10 7z"/>
<path d="M2263 2893 c-34 -13 -5 -23 66 -23 76 0 109 11 75 24 -18 7 -123 7
-141 -1z"/>
<path d="M2321 2786 c-9 -11 -10 -20 -1 -35 6 -12 13 -21 15 -21 10 0 24 40
19 54 -8 20 -18 20 -33 2z"/>
<path d="M2697 2794 c-11 -11 -8 -52 3 -59 17 -10 41 16 38 39 -3 21 -28 33
-41 20z"/>
<path d="M2151 2718 c-2 -32 -24 -68 -42 -68 -33 0 -36 -104 -8 -311 12 -87
27 -103 81 -89 18 4 68 16 110 25 l78 16 15 52 c8 28 12 54 8 57 -5 4 -40 32
-80 63 -79 62 -113 102 -137 160 -8 20 -20 37 -27 37 -9 0 -9 4 1 14 6 8 10
25 7 38 -2 14 -5 16 -6 6z"/>
<path d="M1502 2668 c-6 -6 -12 -20 -12 -30 0 -21 44 -52 64 -45 14 6 51 66
44 72 -13 11 -85 14 -96 3z"/>
<path d="M2758 2594 c-19 -10 -28 -23 -28 -39 0 -34 23 -32 54 6 41 49 30 64
-26 33z"/>
<path d="M2445 2519 c24 -25 76 -34 119 -19 66 21 36 35 -31 15 -7 -2 -33 2
-59 10 -45 13 -45 13 -29 -6z"/>
<path d="M1834 1828 c-41 -20 -44 -44 -44 -397 0 -271 3 -348 15 -387 8 -27
15 -52 15 -56 0 -5 -27 -8 -59 -8 -33 0 -66 -3 -75 -6 -21 -8 -21 -50 0 -62
20 -11 -641 -20 -870 -13 l-158 6 -15 -28 c-19 -38 -12 -54 34 -66 26 -8 614
-11 1870 -11 l1832 0 26 23 27 23 -20 24 -19 24 -379 -3 c-209 -1 -438 1 -510
4 l-130 8 4 29 c6 38 -9 48 -73 48 l-50 0 0 411 0 411 -24 19 c-22 18 -38 19
-175 17 l-151 -3 -6 -40 -6 -40 -2 43 -1 42 -517 -1 c-335 0 -526 -4 -539 -11z
m743 -390 c24 -55 -35 -111 -76 -74 -44 40 -25 96 33 96 25 0 36 -6 43 -22z"/>
<path d="M1110 1300 c-69 -5 -72 -6 -35 -12 56 -11 173 -10 179 1 8 12 -54 17
-144 11z"/>
</g>
</svg>
